Plot:
Six people, each of them is on the road to self-destruction. They wake up in cells in a surreal facility, without knowing how they got there or why. Are they in denial? Are they crazy? What happened? As they try to figure things out, a mysterious man forces the six abductees to participate in a disturbing experiment called the Trials. During the experiment, the unwilling participants will come to face disturbing truths about themselves and decide each others’ fate in a game of dice. As the storyline unfolds, we discover that something greater connects them all.

IMDB:
www.imdb.com/title/tt1465478/

Information:
Format                           : AVI
Format/Info                      : Audio Video Interleave
File size                        : 1.94 GiB
Duration                         : 1h 27mn
Overall bit rate                 : 3 177 Kbps

Video
ID                               : 0
Format                           : MPEG-4 Visual
Format profile                   : Advanced Simple@L5
Format settings, BVOP            : 2
Format settings, QPel            : No
Format settings, GMC             : No warppoints
Format settings, Matrix          : Default (H.263)
Muxing mode                      : Packed bitstream
Codec ID                         : XVID
Codec ID/Hint                    : XviD
Duration                         : 1h 27mn
Bit rate                         : 2 721 Kbps
Width                            : 720 pixels
Height                           : 304 pixels
Display aspect ratio             : 2.35:1
Frame rate                       : 25.000 fps
Color space                      : YUV
Chroma subsampling               : 4:2:0
Bit depth                        : 8 bits
Scan type                        : Progressive
Compression mode                 : Lossy
Bits/(Pixel*Frame)               : 0.497
Stream size                      : 1.67 GiB (86%)
Writing library                  : XviD 64

Audio
ID                               : 1
Format                           : AC-3
Format/Info                      : Audio Coding 3
Mode extension                   : CM (complete main)
Codec ID                         : 2000
Duration                         : 1h 27mn
Bit rate mode                    : Constant
Bit rate                         : 448 Kbps
Channel(s)                       : 6 channels
Channel positions                : Front: L C R, Side: L R, LFE
Sampling rate                    : 48.0 KHz
Bit depth                        : 16 bits
Compression mode                 : Lossy
Stream size                      : 281 MiB (14%)
Alignment                        : Aligned on interleaves
Interleave, duration             : 64 ms (1.60 video frames)
Interleave, preload duration     : 192 ms
Title                            : VTS_01_1 T80 3_2ch 448Kbps DELAY 0ms

Screene:
[imgw=http://img23.imageshack.us/img23/5730/die2010dvdripxvidac3hop.jpg]
[imgw=http://img560.imageshack.us/img560/5730/die2010dvdripxvidac3hop.jpg]
[imgw=http://img715.imageshack.us/img715/5730/die2010dvdripxvidac3hop.jpg]
[imgw=http://img835.imageshack.us/img835/5730/die2010dvdripxvidac3hop.jpg]
[imgw=http://img857.imageshack.us/img857/5730/die2010dvdripxvidac3hop.jpg]
[imgw=http://img835.imageshack.us/img835/4420/die2010dvdripxvidac3hopp.jpg]
[imgw=http://img703.imageshack.us/img703/5730/die2010dvdripxvidac3hop.jpg]
[imgw=http://img821.imageshack.us/img821/5730/die2010dvdripxvidac3hop.jpg]
[imgw=http://img37.imageshack.us/img37/5730/die2010dvdripxvidac3hop.jpg]
[imgw=http://img829.imageshack.us/img829/5730/die2010dvdripxvidac3hop.jpg]
Notes:


Video Source > PAL.DVDR-iGNiTiON... Thanks
Audio Source > PAL.DVDR-iGNiTiON... Thanks

Enjoy!

Anything to offer email us @: hopegrp@hushmail.me

Respects to 26K, DTRG, JCRG, GooN, ViSiON, SANTi, INSPiRAL, REFiLL, SiC...
And many others in the P2P and Scene world